<svg xmlns="http://www.w3.org/2000/svg" viewBox="0 0 157 19"><defs><style>.cls-1{fill:#fff}.cls-2{fill:#fff}</style></defs><title>nutanix-logo-white</title><path class="cls-1" d="M121.09.13h-3.92a.43.43 0 0 0-.43.43v17.88a.43.43 0 0 0 .43.43h3.92a.43.43 0 0 0 .43-.43V.55a.43.43 0 0 0-.43-.42zm30.82 16.17h-.74a.25.25 0 1 1 0-.5h2a.25.25 0 0 1 0 .5h-.75v2.3a.27.27 0 0 1-.54 0zm2.09-.24a.27.27 0 0 1 .27-.27h.06a.28.28 0 0 1 .25.14l.93 1.44.93-1.45a.27.27 0 0 1 .25-.14h.06a.27.27 0 0 1 .27.27v2.55a.27.27 0 0 1-.27.27.27.27 0 0 1-.27-.27v-1.82l-.75 1.12a.25.25 0 0 1-.45 0l-.74-1.11v1.81a.26.26 0 0 1-.27.26.26.26 0 0 1-.26-.26zM46 .13h-3.32a.72.72 0 0 0-.68.72V13c0 1.28-1.8 1.69-4 1.69h-5c-2.21 0-4-.41-4-1.69V.85a.72.72 0 0 0-.73-.72h-3.36a.72.72 0 0 0-.73.72v12.43a4.91 4.91 0 0 0 2.73 4.57c1.79 1.07 6 1 7.2 1h2.7c1.24 0 5.41 0 7.2-1a4.91 4.91 0 0 0 2.73-4.57V.85A.72.72 0 0 0 46 .13zm97.87.12a.44.44 0 0 1 .31-.13h5.47a.44.44 0 0 1 .27.79l-8 6.93a.44.44 0 0 1-.64 0l-2.73-2.36a.44.44 0 0 1 0-.63zm0 18.49a.44.44 0 0 0 .31.13h5.47a.44.44 0 0 0 .27-.79l-8-6.93a.44.44 0 0 0-.64 0l-2.73 2.36a.44.44 0 0 0 0 .63z"/><path class="cls-2" d="M129.28 18.75a.44.44 0 0 1-.3.12h-5.47a.44.44 0 0 1-.44-.44.43.43 0 0 1 .13-.31l9.59-8.29a.44.44 0 0 0 0-.66L123.22.9a.43.43 0 0 1-.16-.33.44.44 0 0 1 .44-.44h5.5a.44.44 0 0 1 .3.12l10.33 8.92a.44.44 0 0 1 0 .66z"/><path class="cls-1" d="M61 4.74a.44.44 0 0 1 .44-.44h6.79a.72.72 0 0 0 .77-.72V.85a.72.72 0 0 0-.73-.72H49a.72.72 0 0 0-.73.72v2.73a.72.72 0 0 0 .73.72h6.8a.44.44 0 0 1 .44.44v13.4a.72.72 0 0 0 .73.72h3.32a.72.72 0 0 0 .73-.72zm-43.68 7.01a.34.34 0 0 0 .22.09.3.3 0 0 0 .31-.3V.85a.72.72 0 0 1 .73-.72h3.33a.72.72 0 0 1 .73.72v15.49c0 1.58-.62 2.27-1.23 2.54a4.21 4.21 0 0 1-3.56-.79L5.9 7.76l-.68-.59a.27.27 0 0 0-.43.21v10.76a.72.72 0 0 1-.73.72H.73a.72.72 0 0 1-.73-.72V2.66C0 1.08.62.39 1.23.13a4.21 4.21 0 0 1 3.56.79l11.94 10.32zm92.55 0a.34.34 0 0 0 .22.09.3.3 0 0 0 .31-.3V.85a.72.72 0 0 1 .73-.72h3.33a.72.72 0 0 1 .73.72v15.49c0 1.58-.62 2.27-1.23 2.54a4.21 4.21 0 0 1-3.56-.79L98.45 7.76l-.68-.59a.27.27 0 0 0-.43.21v10.76a.72.72 0 0 1-.73.72h-3.34a.72.72 0 0 1-.73-.72V2.66c0-1.58.62-2.27 1.23-2.54a4.21 4.21 0 0 1 3.56.79l11.94 10.32zm6.86-10.9a.72.72 0 0 1 .73-.72h3.33a.72.72 0 0 1 .73.72v17.29a.72.72 0 0 1-.73.72h-3.33a.72.72 0 0 1-.73-.72zM90.89 18.14L79.1 1.24A2.81 2.81 0 0 0 76.78 0a2.81 2.81 0 0 0-2.32 1.21L62.68 18.14a.44.44 0 0 0-.1.28.44.44 0 0 0 .44.44h4.31a.44.44 0 0 0 .38-.22l3.05-4.38a.44.44 0 0 1 .4-.25h11.25a.44.44 0 0 1 .4.25l3.05 4.38a.44.44 0 0 0 .38.22h4.31a.44.44 0 0 0 .44-.44.44.44 0 0 0-.1-.28zM79.22 9.85h-4.87a.26.26 0 0 1-.27-.26.26.26 0 0 1 .08-.19l2.4-3.4.05-.05h.22L77 6l2.4 3.44a.26.26 0 0 1-.19.45z"/></svg>