<?xml version="1.0" encoding="utf-8"?>
<!-- Generator: Adobe Illustrator 20.0.0, SVG Export Plug-In . SVG Version: 6.00 Build 0)  -->
<svg version="1.1" id="Layer_1" xmlns="http://www.w3.org/2000/svg" xmlns:xlink="http://www.w3.org/1999/xlink" x="0px" y="0px"
	 viewBox="0 0 500 95.9" style="enable-background:new 0 0 500 95.9;" xml:space="preserve">
<style type="text/css">
	.st0{fill:#FFFFFF;}
	.st1{fill:#AFD136;}
</style>
<g>
	<g id="Nutanix_x5F_RGB_1_">
		<g>
			<g>
				<path class="st0" d="M385.6,0.1h-12.5c-0.8,0-1.4,0.6-1.4,1.4v57.4c0,0.8,0.6,1.4,1.4,1.4h12.5c0.8,0,1.4-0.6,1.4-1.4V1.4
					C387,0.7,386.4,0.1,385.6,0.1"/>
				<path class="st0" d="M483.8,52h-2.4c-0.4,0-0.8-0.4-0.8-0.8c0-0.4,0.3-0.8,0.8-0.8h6.5c0.4,0,0.8,0.4,0.8,0.8
					c0,0.4-0.3,0.8-0.8,0.8h-2.4v7.4c0,0.5-0.4,0.9-0.9,0.9s-0.9-0.4-0.9-0.9V52z"/>
				<path class="st0" d="M490.4,51.2c0-0.5,0.4-0.9,0.9-0.9h0.2c0.4,0,0.6,0.2,0.8,0.5l3,4.6l3-4.6c0.2-0.3,0.4-0.4,0.8-0.4h0.2
					c0.5,0,0.9,0.4,0.9,0.9v8.2c0,0.5-0.4,0.9-0.9,0.9c-0.5,0-0.8-0.4-0.8-0.9v-5.8l-2.4,3.6c-0.2,0.3-0.4,0.4-0.7,0.4
					c-0.3,0-0.5-0.2-0.7-0.4l-2.4-3.6v5.8c0,0.5-0.4,0.8-0.8,0.8c-0.5,0-0.8-0.4-0.8-0.8V51.2z"/>
				<path class="st0" d="M146.5,0.1h-10.6c-1.3,0-2.3,1-2.3,2.3v39c0,4.1-5.7,5.4-12.8,5.4h-7.9H105c-7,0-12.8-1.3-12.8-5.4v-39
					c0-1.3-1-2.3-2.3-2.3H79.3c-1.3,0-2.3,1-2.3,2.3c0,0,0,33,0,39.9c0,6.9,3,11.2,8.7,14.7c5.7,3.4,19,3.3,22.9,3.3h4.3h4.3
					c3.9,0,17.2,0.2,22.9-3.3c5.7-3.4,8.7-7.8,8.7-14.7c0-6.9,0-39.9,0-39.9C148.9,1.1,147.8,0.1,146.5,0.1"/>
				<path class="st0" d="M458.2,0.5c0.3-0.2,0.6-0.4,1-0.4h17.4c0.8,0,1.4,0.6,1.4,1.4c0,0.5-0.2,0.9-0.6,1.1l-25.6,22.3
					c-0.3,0.3-0.6,0.4-1,0.4c-0.4,0-0.8-0.2-1-0.5l-8.7-7.6c-0.2-0.2-0.4-0.6-0.4-0.9c0-0.4,0.2-0.8,0.5-1.1L458.2,0.5z"/>
				<path class="st0" d="M458.2,59.8c0.3,0.2,0.6,0.4,1,0.4h17.4c0.8,0,1.4-0.6,1.4-1.4c0-0.5-0.2-0.9-0.6-1.1l-25.6-22.3
					c-0.3-0.3-0.6-0.4-1-0.4c-0.4,0-0.8,0.2-1,0.5l-8.7,7.6c-0.2,0.3-0.4,0.6-0.4,0.9c0,0.4,0.2,0.8,0.5,1.1L458.2,59.8z"/>
				<path class="st1" d="M411.7,59.8c-0.2,0.2-0.6,0.4-0.9,0.4h-17.4c-0.8,0-1.4-0.6-1.4-1.4c0-0.4,0.2-0.7,0.4-1l30.5-26.6
					c0.3-0.3,0.5-0.6,0.5-1.1c0-0.4-0.2-0.8-0.5-1L392.4,2.5c-0.3-0.3-0.5-0.6-0.5-1.1c0-0.8,0.6-1.4,1.4-1.4h17.4
					c0.4,0,0.7,0.1,1,0.4l32.9,28.6c0.3,0.3,0.5,0.6,0.5,1.1c0,0.4-0.2,0.8-0.5,1.1L411.7,59.8z"/>
				<path class="st0" d="M194.4,14.8c0-0.8,0.6-1.4,1.4-1.4h21.6c1.3,0,2.3-1,2.3-2.3V2.4c0-1.3-1-2.3-2.3-2.3h-61.3
					c-1.3,0-2.3,1-2.3,2.3v8.8c0,1.3,1,2.3,2.3,2.3h21.6c0.8,0,1.4,0.6,1.4,1.4v43c0,1.3,1,2.3,2.3,2.3H192c1.3,0,2.3-1,2.3-2.3
					L194.4,14.8z"/>
				<path class="st0" d="M55.2,37.4c0.2,0.2,0.4,0.3,0.7,0.3c0.5,0,1-0.4,1-1V2.4c0-1.3,1-2.3,2.3-2.3h10.6c1.3,0,2.3,1,2.3,2.3
					v49.7c0,5.1-2,7.3-3.9,8.1c-1.9,0.9-7.8,0.5-11.3-2.5c-3.5-3.1-38-33.1-38-33.1s-2-1.8-2.2-1.9c-0.1-0.1-0.3-0.2-0.5-0.2
					c-0.5,0-0.8,0.4-0.8,0.8v34.5c0,1.3-1,2.3-2.3,2.3H2.3c-1.3,0-2.3-1-2.3-2.3V8.2c0-5.1,2-7.3,3.9-8.1c1.9-0.9,7.8-0.5,11.3,2.5
					c3.5,3.1,38,33.1,38,33.1S55,37.3,55.2,37.4"/>
				<path class="st0" d="M349.9,37.4c0.2,0.2,0.4,0.3,0.7,0.3c0.5,0,1-0.4,1-1V2.4c0-1.3,1-2.3,2.3-2.3h10.6c1.3,0,2.3,1,2.3,2.3
					v49.7c0,5.1-2,7.3-3.9,8.1c-1.9,0.9-7.8,0.5-11.3-2.5c-3.5-3.1-38-33.1-38-33.1s-2-1.8-2.2-1.9c-0.1-0.1-0.3-0.2-0.5-0.2
					c-0.5,0-0.8,0.4-0.8,0.8v34.5c0,1.3-1,2.3-2.3,2.3h-10.6c-1.3,0-2.3-1-2.3-2.3V8.2c0-5.1,2-7.3,3.9-8.1
					c1.9-0.9,7.8-0.5,11.3,2.5c3.5,3.1,38,33.1,38,33.1S349.8,37.3,349.9,37.4"/>
				<path class="st0" d="M371.8,2.4c0-1.3,1-2.3,2.3-2.3h10.6c1.3,0,2.3,1,2.3,2.3v55.5c0,1.3-1,2.3-2.3,2.3h-10.6
					c-1.3,0-2.3-1-2.3-2.3V2.4z"/>
				<path class="st0" d="M289.5,57.9L251.9,3.6l0,0c-1.6-2.3-4.3-3.9-7.4-3.9h0c-3.1,0-5.8,1.5-7.4,3.9l0,0l-37.6,54.2
					c-0.2,0.2-0.3,0.6-0.3,0.9c0,0.8,0.6,1.4,1.4,1.4h13.7c0.5,0,1-0.3,1.2-0.7l9.7-14c0.2-0.5,0.7-0.8,1.3-0.8h35.8
					c0.6,0,1,0.3,1.3,0.8l9.7,14c0.2,0.4,0.7,0.7,1.2,0.7h13.7c0.8,0,1.4-0.6,1.4-1.4C289.8,58.4,289.7,58.1,289.5,57.9 M252.3,31.3
					h-15.5c-0.5,0-0.8-0.4-0.8-0.8c0-0.2,0.1-0.4,0.2-0.6l7.6-11c0-0.1,0.1-0.1,0.2-0.2c0,0,0.1-0.1,0.1-0.1
					c0.1-0.1,0.2-0.1,0.3-0.1c0,0,0,0,0.1,0c0,0,0,0,0.1,0c0.1,0,0.2,0,0.3,0.1c0.1,0,0.1,0.1,0.1,0.1c0.1,0.1,0.1,0.1,0.2,0.2
					l7.6,11c0.2,0.2,0.2,0.4,0.2,0.6C253.1,30.9,252.8,31.3,252.3,31.3"/>
			</g>
		</g>
	</g>
	<g>
		<path class="st0" d="M8.5,82.5L0.4,71.2c-0.2-0.2-0.3-0.5-0.3-0.8c0-0.7,0.6-1.2,1.3-1.2c0.5,0,0.9,0.3,1.2,0.7l7.2,10.4L17,69.9
			c0.3-0.4,0.6-0.7,1.2-0.7c0.7,0,1.2,0.6,1.2,1.2c0,0.3-0.2,0.7-0.3,0.9L11,82.5V90c0,0.7-0.6,1.2-1.2,1.2c-0.7,0-1.2-0.6-1.2-1.2
			V82.5z"/>
		<path class="st0" d="M19.4,83.1L19.4,83.1c0-4.6,3.6-8.5,8.4-8.5c4.8,0,8.4,3.8,8.4,8.3v0.1c0,4.5-3.6,8.4-8.4,8.4
			C22.9,91.5,19.4,87.7,19.4,83.1z M33.7,83.1L33.7,83.1c0-3.5-2.6-6.4-6-6.4c-3.5,0-5.9,2.8-5.9,6.2v0.1c0,3.5,2.6,6.3,6,6.3
			C31.3,89.3,33.7,86.5,33.7,83.1z"/>
		<path class="st0" d="M54.3,90c0,0.7-0.5,1.2-1.2,1.2c-0.7,0-1.2-0.5-1.2-1.2v-1.7c-1.1,1.7-2.7,3.1-5.5,3.1
			c-3.9,0-6.2-2.6-6.2-6.4v-8.9c0-0.7,0.5-1.2,1.2-1.2c0.7,0,1.2,0.5,1.2,1.2v8.3c0,3,1.6,4.9,4.5,4.9c2.7,0,4.8-2,4.8-5v-8.2
			c0-0.7,0.5-1.2,1.2-1.2c0.7,0,1.2,0.5,1.2,1.2V90z"/>
		<path class="st0" d="M59.7,76.1c0-0.7,0.5-1.2,1.2-1.2c0.7,0,1.2,0.5,1.2,1.2v3c1.2-2.7,3.5-4.3,5.5-4.3c0.7,0,1.2,0.5,1.2,1.2
			c0,0.7-0.4,1.1-1.1,1.2c-3.1,0.4-5.7,2.7-5.7,7.4V90c0,0.7-0.5,1.2-1.2,1.2c-0.7,0-1.2-0.5-1.2-1.2V76.1z"/>
		<path class="st0" d="M82.1,89.9V70.5c0-0.7,0.6-1.2,1.2-1.2h13.6c0.6,0,1.1,0.5,1.1,1.1c0,0.6-0.5,1.1-1.1,1.1H84.5V79h10.9
			c0.6,0,1.1,0.5,1.1,1.1c0,0.6-0.5,1.1-1.1,1.1H84.5v7.6H97c0.6,0,1.1,0.5,1.1,1.1c0,0.6-0.5,1.1-1.1,1.1H83.3
			C82.6,91.1,82.1,90.5,82.1,89.9z"/>
		<path class="st0" d="M102.5,76.1c0-0.7,0.5-1.2,1.2-1.2c0.7,0,1.2,0.5,1.2,1.2v1.7c1.1-1.7,2.7-3.1,5.5-3.1c3.9,0,6.2,2.6,6.2,6.4
			V90c0,0.7-0.5,1.2-1.2,1.2c-0.7,0-1.2-0.5-1.2-1.2v-8.3c0-3-1.6-4.9-4.5-4.9c-2.8,0-4.8,2-4.8,5V90c0,0.7-0.5,1.2-1.2,1.2
			c-0.7,0-1.2-0.5-1.2-1.2V76.1z"/>
		<path class="st0" d="M122.6,86.8v-9.7h-1.3c-0.6,0-1.1-0.5-1.1-1.1c0-0.6,0.5-1.1,1.1-1.1h1.3v-3.8c0-0.7,0.5-1.2,1.2-1.2
			c0.7,0,1.2,0.6,1.2,1.2V75h4.2c0.6,0,1.1,0.5,1.1,1.1c0,0.6-0.5,1.1-1.1,1.1H125v9.4c0,2,1.1,2.7,2.7,2.7c0.8,0,1.3-0.2,1.5-0.2
			c0.6,0,1,0.5,1,1c0,0.4-0.3,0.8-0.7,0.9c-0.7,0.3-1.4,0.4-2.4,0.4C124.5,91.4,122.6,90.1,122.6,86.8z"/>
		<path class="st0" d="M140.9,91.5c-4.4,0-8-3.4-8-8.4V83c0-4.6,3.3-8.4,7.7-8.4c4.8,0,7.5,3.9,7.5,8.2c0,0.7-0.5,1.1-1.1,1.1h-11.7
			c0.3,3.5,2.8,5.5,5.7,5.5c2,0,3.5-0.8,4.6-1.9c0.2-0.2,0.4-0.3,0.7-0.3c0.6,0,1.1,0.5,1.1,1c0,0.3-0.1,0.6-0.4,0.8
			C145.4,90.5,143.6,91.5,140.9,91.5z M145.7,82.2c-0.2-2.9-1.9-5.5-5.1-5.5c-2.8,0-4.9,2.3-5.2,5.5H145.7z"/>
		<path class="st0" d="M152.3,76.1c0-0.7,0.5-1.2,1.2-1.2c0.7,0,1.2,0.5,1.2,1.2v3c1.2-2.7,3.5-4.3,5.5-4.3c0.7,0,1.2,0.5,1.2,1.2
			c0,0.7-0.4,1.1-1.1,1.2c-3.1,0.4-5.7,2.7-5.7,7.4V90c0,0.7-0.5,1.2-1.2,1.2c-0.7,0-1.2-0.5-1.2-1.2V76.1z"/>
		<path class="st0" d="M164.9,76.1c0-0.7,0.5-1.2,1.2-1.2c0.7,0,1.2,0.5,1.2,1.2v2.2c1.3-1.9,3.2-3.6,6.2-3.6c3.9,0,7.7,3.1,7.7,8.3
			v0.1c0,5.3-3.8,8.4-7.7,8.4c-3,0-4.9-1.6-6.2-3.4v7c0,0.7-0.5,1.2-1.2,1.2c-0.7,0-1.2-0.5-1.2-1.2V76.1z M178.7,83.1L178.7,83.1
			c0-3.9-2.6-6.3-5.7-6.3c-3,0-5.8,2.5-5.8,6.2v0.1c0,3.7,2.8,6.2,5.8,6.2C176.2,89.3,178.7,87,178.7,83.1z"/>
		<path class="st0" d="M185.6,76.1c0-0.7,0.5-1.2,1.2-1.2c0.7,0,1.2,0.5,1.2,1.2v3c1.2-2.7,3.5-4.3,5.5-4.3c0.7,0,1.2,0.5,1.2,1.2
			c0,0.7-0.4,1.1-1.1,1.2c-3.1,0.4-5.7,2.7-5.7,7.4V90c0,0.7-0.5,1.2-1.2,1.2c-0.7,0-1.2-0.5-1.2-1.2V76.1z"/>
		<path class="st0" d="M198.2,69.9c0-0.8,0.6-1.3,1.4-1.3c0.8,0,1.4,0.5,1.4,1.3v0.4c0,0.7-0.6,1.3-1.4,1.3c-0.8,0-1.4-0.5-1.4-1.3
			V69.9z M198.4,76.1c0-0.7,0.5-1.2,1.2-1.2c0.7,0,1.2,0.5,1.2,1.2v14c0,0.7-0.5,1.2-1.2,1.2s-1.2-0.5-1.2-1.2V76.1z"/>
		<path class="st0" d="M205.5,89.4c-0.2-0.2-0.4-0.5-0.4-0.9c0-0.6,0.5-1,1.1-1c0.2,0,0.4,0.1,0.6,0.2c1.7,1.1,3.4,1.7,5.1,1.7
			c1.9,0,3.3-1,3.3-2.6v-0.1c0-1.6-1.9-2.2-4-2.8c-2.5-0.7-5.3-1.6-5.3-4.5v-0.1c0-2.8,2.3-4.6,5.5-4.6c1.7,0,3.6,0.5,5.1,1.4
			c0.3,0.2,0.6,0.5,0.6,1c0,0.6-0.5,1-1.1,1c-0.2,0-0.4-0.1-0.5-0.1c-1.4-0.8-2.8-1.2-4.2-1.2c-1.9,0-3.1,1-3.1,2.3v0.1
			c0,1.5,2,2.1,4.1,2.8c2.5,0.7,5.2,1.7,5.2,4.6v0.1c0,3.1-2.5,4.8-5.7,4.8C209.6,91.4,207.3,90.6,205.5,89.4z"/>
		<path class="st0" d="M229,91.5c-4.4,0-8-3.4-8-8.4V83c0-4.6,3.3-8.4,7.7-8.4c4.8,0,7.5,3.9,7.5,8.2c0,0.7-0.5,1.1-1.1,1.1h-11.7
			c0.3,3.5,2.8,5.5,5.7,5.5c2,0,3.5-0.8,4.6-1.9c0.2-0.2,0.4-0.3,0.7-0.3c0.6,0,1.1,0.5,1.1,1c0,0.3-0.1,0.6-0.4,0.8
			C233.5,90.5,231.7,91.5,229,91.5z M233.7,82.2c-0.2-2.9-1.9-5.5-5.1-5.5c-2.8,0-4.9,2.3-5.2,5.5H233.7z"/>
		<path class="st0" d="M249.2,80.3L249.2,80.3c0-6.2,4.6-11.3,11-11.3c3.5,0,5.8,1.2,7.8,2.8c0.2,0.2,0.5,0.6,0.5,1
			c0,0.7-0.6,1.2-1.2,1.2c-0.3,0-0.6-0.2-0.8-0.3c-1.7-1.5-3.6-2.5-6.3-2.5c-4.8,0-8.4,3.9-8.4,8.9v0.1c0,5,3.6,9,8.4,9
			c2.7,0,4.6-0.9,6.5-2.6c0.2-0.2,0.5-0.3,0.8-0.3c0.6,0,1.2,0.6,1.2,1.2c0,0.4-0.2,0.7-0.4,0.9c-2.1,2-4.5,3.2-8.1,3.2
			C253.8,91.5,249.2,86.5,249.2,80.3z"/>
		<path class="st0" d="M272.9,69.4c0-0.7,0.5-1.2,1.2-1.2c0.7,0,1.2,0.6,1.2,1.2V90c0,0.7-0.5,1.2-1.2,1.2s-1.2-0.5-1.2-1.2V69.4z"
			/>
		<path class="st0" d="M279.9,83.1L279.9,83.1c0-4.6,3.6-8.5,8.4-8.5c4.8,0,8.4,3.8,8.4,8.3v0.1c0,4.5-3.6,8.4-8.4,8.4
			C283.4,91.5,279.9,87.7,279.9,83.1z M294.3,83.1L294.3,83.1c0-3.5-2.6-6.4-6-6.4c-3.5,0-5.9,2.8-5.9,6.2v0.1c0,3.5,2.6,6.3,6,6.3
			C291.8,89.3,294.3,86.5,294.3,83.1z"/>
		<path class="st0" d="M314.9,90c0,0.7-0.5,1.2-1.2,1.2c-0.7,0-1.2-0.5-1.2-1.2v-1.7c-1.1,1.7-2.7,3.1-5.5,3.1
			c-3.9,0-6.2-2.6-6.2-6.4v-8.9c0-0.7,0.5-1.2,1.2-1.2c0.7,0,1.2,0.5,1.2,1.2v8.3c0,3,1.6,4.9,4.5,4.9c2.7,0,4.8-2,4.8-5v-8.2
			c0-0.7,0.5-1.2,1.2-1.2c0.7,0,1.2,0.5,1.2,1.2V90z"/>
		<path class="st0" d="M335.6,90c0,0.7-0.5,1.2-1.2,1.2c-0.7,0-1.2-0.5-1.2-1.2v-2.2c-1.3,1.9-3.2,3.6-6.2,3.6
			c-3.9,0-7.7-3.1-7.7-8.3V83c0-5.3,3.8-8.4,7.7-8.4c3,0,4.9,1.6,6.2,3.4v-8.7c0-0.7,0.5-1.2,1.2-1.2s1.2,0.5,1.2,1.2V90z M321.8,83
			L321.8,83c0,3.9,2.6,6.3,5.7,6.3c3,0,5.8-2.5,5.8-6.2V83c0-3.7-2.8-6.2-5.8-6.2C324.3,76.8,321.8,79.1,321.8,83z"/>
		<path class="st0" d="M350.7,70.5c0-0.7,0.6-1.2,1.2-1.2h6.9c4.9,0,8.2,2.6,8.2,6.9v0.1c0,4.7-3.9,7.1-8.6,7.1h-5.3V90
			c0,0.7-0.6,1.2-1.2,1.2c-0.7,0-1.2-0.6-1.2-1.2V70.5z M358.5,81.2c3.6,0,6-1.9,6-4.8v-0.1c0-3.1-2.3-4.7-5.9-4.7h-5.5v9.6H358.5z"
			/>
		<path class="st0" d="M371.3,69.4c0-0.7,0.5-1.2,1.2-1.2c0.7,0,1.2,0.6,1.2,1.2V90c0,0.7-0.5,1.2-1.2,1.2c-0.7,0-1.2-0.5-1.2-1.2
			V69.4z"/>
		<path class="st0" d="M378.1,86.4L378.1,86.4c0-3.5,2.8-5.3,6.9-5.3c2.1,0,3.5,0.3,5,0.7v-0.6c0-2.9-1.8-4.4-4.8-4.4
			c-1.6,0-3,0.4-4.2,0.9c-0.2,0.1-0.3,0.1-0.4,0.1c-0.6,0-1.1-0.5-1.1-1c0-0.5,0.3-0.9,0.7-1c1.6-0.7,3.2-1.1,5.3-1.1
			c2.3,0,4,0.6,5.2,1.8c1.1,1.1,1.7,2.6,1.7,4.7v8.8c0,0.7-0.5,1.2-1.2,1.2c-0.7,0-1.2-0.5-1.2-1.1v-1.5c-1.1,1.5-3,2.8-5.8,2.8
			C381.1,91.4,378.1,89.7,378.1,86.4z M389.9,85.2v-1.6c-1.2-0.3-2.8-0.7-4.7-0.7c-3,0-4.7,1.3-4.7,3.3v0.1c0,2,1.9,3.2,4,3.2
			C387.5,89.5,389.9,87.7,389.9,85.2z"/>
		<path class="st0" d="M398,86.8v-9.7h-1.3c-0.6,0-1.1-0.5-1.1-1.1c0-0.6,0.5-1.1,1.1-1.1h1.3v-3.8c0-0.7,0.5-1.2,1.2-1.2
			c0.7,0,1.2,0.6,1.2,1.2V75h4.2c0.6,0,1.1,0.5,1.1,1.1c0,0.6-0.5,1.1-1.1,1.1h-4.2v9.4c0,2,1.1,2.7,2.7,2.7c0.8,0,1.3-0.2,1.5-0.2
			c0.6,0,1,0.5,1,1c0,0.4-0.3,0.8-0.7,0.9c-0.7,0.3-1.4,0.4-2.4,0.4C400,91.4,398,90.1,398,86.8z"/>
		<path class="st0" d="M410.7,77.1h-1.3c-0.6,0-1-0.5-1-1.1c0-0.6,0.5-1,1-1h1.3v-1.4c0-1.8,0.5-3.2,1.4-4.1c0.8-0.8,2-1.2,3.5-1.2
			c0.8,0,1.4,0.1,1.9,0.2c0.5,0.1,0.9,0.5,0.9,1c0,0.6-0.5,1.1-1.2,1c-0.4-0.1-0.8-0.2-1.3-0.2c-1.9,0-2.8,1.1-2.8,3.4v1.3h4.2
			c0.6,0,1.1,0.4,1.1,1c0,0.6-0.5,1-1.1,1h-4.1V90c0,0.7-0.5,1.2-1.2,1.2c-0.7,0-1.2-0.6-1.2-1.2V77.1z"/>
		<path class="st0" d="M419.9,83.1L419.9,83.1c0-4.6,3.6-8.5,8.4-8.5c4.8,0,8.4,3.8,8.4,8.3v0.1c0,4.5-3.6,8.4-8.4,8.4
			C423.4,91.5,419.9,87.7,419.9,83.1z M434.2,83.1L434.2,83.1c0-3.5-2.6-6.4-6-6.4c-3.5,0-5.9,2.8-5.9,6.2v0.1c0,3.5,2.6,6.3,6,6.3
			C431.8,89.3,434.2,86.5,434.2,83.1z"/>
		<path class="st0" d="M441,76.1c0-0.7,0.5-1.2,1.2-1.2c0.7,0,1.2,0.5,1.2,1.2v3c1.2-2.7,3.5-4.3,5.5-4.3c0.7,0,1.2,0.5,1.2,1.2
			c0,0.7-0.4,1.1-1.1,1.2c-3.1,0.4-5.7,2.7-5.7,7.4V90c0,0.7-0.5,1.2-1.2,1.2c-0.7,0-1.2-0.5-1.2-1.2V76.1z"/>
		<path class="st0" d="M453.6,76.1c0-0.7,0.5-1.2,1.2-1.2c0.7,0,1.2,0.5,1.2,1.2v1.7c1.1-1.6,2.5-3.1,5.2-3.1c2.6,0,4.3,1.4,5.2,3.2
			c1.2-1.8,2.9-3.2,5.7-3.2c3.7,0,6,2.5,6,6.5V90c0,0.7-0.5,1.2-1.2,1.2c-0.7,0-1.2-0.5-1.2-1.2v-8.3c0-3.1-1.6-4.9-4.2-4.9
			c-2.4,0-4.4,1.8-4.4,5V90c0,0.7-0.5,1.2-1.2,1.2c-0.7,0-1.2-0.5-1.2-1.2v-8.4c0-3-1.6-4.8-4.1-4.8S456,79,456,81.9V90
			c0,0.7-0.5,1.2-1.2,1.2c-0.7,0-1.2-0.5-1.2-1.2V76.1z"/>
	</g>
</g>
</svg>
